<svg xmlns="http://www.w3.org/2000/svg" width="1021" height="477" viewBox="0 0 1021 477">
  <defs>
    <style>
      .cls-1 {
        fill: #fff;
      }

      .cls-2, .cls-4 {
        fill: none;
      }

      .cls-2 {
        stroke: #fff;
      }

      .cls-3 {
        stroke: none;
      }
    </style>
  </defs>
  <g id="그룹_45" data-name="그룹 45" transform="translate(-176 -5015)">
    <path id="패스_83" data-name="패스 83" d="M0,0H1021V477H0Z" transform="translate(176 5015)"/>
    <path id="패스_42" data-name="패스 42" class="cls-1" d="M11.12-22.6v8.96H2.4v1.68h8.72v9.52h1.76v-9.52H21.6v-1.68H12.88V-22.6Z" transform="translate(671 5407)"/>
    <circle id="타원_1" data-name="타원 1" class="cls-1" cx="96.349" cy="96.349" r="96.349" transform="translate(586.651 5033.986)"/>
    <g id="타원_2" data-name="타원 2" class="cls-2" transform="translate(254.651 5298.151)">
      <circle class="cls-3" cx="96.349" cy="96.349" r="96.349"/>
      <circle class="cls-4" cx="96.349" cy="96.349" r="95.849"/>
    </g>
    <g id="타원_3" data-name="타원 3" class="cls-2" transform="translate(918.651 5298.151)">
      <circle class="cls-3" cx="96.349" cy="96.349" r="96.349"/>
      <circle class="cls-4" cx="96.349" cy="96.349" r="95.849"/>
    </g>
    <path id="패스_41" data-name="패스 41" d="M2.64.78H3.96v-8.7H9.3c4.53,0,7.05-2.1,7.05-6.15v-.66c0-3.99-2.43-6.12-6.96-6.12H2.64Zm6.75-20.4c4.08,0,5.61,1.98,5.61,4.95v.57c0,3.03-1.53,4.95-5.85,4.95H3.96V-19.62ZM32.79.78h1.47L26.01-20.85H24.69L16.35.78h1.44l2.64-6.99h9.78ZM23.55-14.37c.66-1.74,1.32-3.39,1.8-5.07.51,1.68,1.2,3.33,1.83,5.07l2.58,6.99H20.88ZM37.32.78h1.32V-8.76H43.8a14.409,14.409,0,0,0,1.65-.09L50.13.78h1.41l-4.77-9.9A5.207,5.207,0,0,0,51-14.61v-.66c0-3.99-2.76-5.58-7.11-5.58H37.32Zm6.57-20.4c3.9,0,5.76,1.44,5.76,4.41v.57c0,3.03-1.86,4.65-6,4.65H38.64v-9.63Zm26.37-1.23h-1.8L56.97-8.94V-20.85H55.65V.78h1.32V-7.26l3.42-3.51L69.18.78H70.8L61.32-11.7Z" transform="translate(647 5139)"/>
    <g id="그룹_17" data-name="그룹 17">
      <line id="선_1" data-name="선 1" class="cls-2" x2="248" transform="translate(351.5 5130.5)"/>
      <line id="선_4" data-name="선 4" class="cls-2" x1="248" transform="translate(767 5130)"/>
      <line id="선_2" data-name="선 2" class="cls-2" y1="168" transform="translate(351.5 5130.5)"/>
      <line id="선_3" data-name="선 3" class="cls-2" y1="168" transform="translate(1015 5130)"/>
    </g>
    <path id="패스_40" data-name="패스 40" class="cls-1" d="M-52.9-15.985V.6h9.844V-.345h-8.832V-7.452H-43.7v-.92h-8.188v-6.67h8.671v-.943Zm24.426,0h-1.15L-34.385-8.6l-5.037-7.383h-1.2l5.543,8L-40.917.6h1.2l5.29-7.958L-29.394.6h1.242l-5.566-8.625ZM-20.562.6v-15.64h5.52v-.943H-27.094v.943h5.52V.6Zm8.05-16.583V.6h9.844V-.345H-11.5V-7.452h8.188v-.92H-11.5v-6.67h8.671v-.943ZM.943.6H1.955V-6.716H5.911a11.047,11.047,0,0,0,1.265-.069L10.764.6h1.081L8.188-6.992A3.992,3.992,0,0,0,11.431-11.2v-.506c0-3.059-2.116-4.278-5.451-4.278H.943ZM5.98-15.042c2.99,0,4.416,1.1,4.416,3.381v.437C10.4-8.9,8.97-7.659,5.8-7.659H1.955v-7.383ZM15-15.985V.6h.989V-14.858c.184.391.46.966.713,1.4L24.955.6h1.38V-15.985h-.989V-.529c-.184-.391-.529-1.1-.713-1.4L16.376-15.985ZM41.285.6h1.127L36.087-15.985H35.075L28.681.6h1.1l2.024-5.359h7.5ZM34.2-11.017c.506-1.334,1.012-2.6,1.38-3.887.391,1.288.92,2.553,1.4,3.887l1.978,5.359H32.154Zm10.557-4.968V.6h9.614V-.345h-8.6v-15.64Zm-89.447,30V30.6h1.012V14.015Zm5.06,0V30.6h4.9c3.956,0,6.6-2.53,6.6-7.107V21.122c0-4.577-2.346-7.107-6.6-7.107Zm1.012.966h3.979c3.473,0,5.474,2.07,5.474,6.256v2.254c0,4.094-2.461,6.141-5.451,6.141h-4Zm13.892-.966V30.6h9.844v-.943h-8.832V22.548h8.188v-.92h-8.188v-6.67h8.671v-.943Zm13.455,0V30.6h.989V15.142c.184.391.46.966.713,1.4L-1.311,30.6H.069V14.015H-.92V29.471c-.184-.391-.529-1.1-.713-1.4L-9.89,14.015ZM9.131,30.6V14.958h5.52v-.943H2.6v.943h5.52V30.6Zm8.05-16.583V30.6h1.012V14.015ZM27.255,30.6V14.958h5.52v-.943H20.723v.943h5.52V30.6ZM46.161,14.015h-1.1L40.089,22.8l-5.175-8.786H33.833l5.727,9.706V30.6h1.012V23.721Z" transform="translate(351 5387)"/>
    <path id="패스_37" data-name="패스 37" class="cls-1" d="M-49.462-15.985V.6h1.012V-15.985Zm5.06,0V.6h.989V-14.858c.184.391.46.966.713,1.4L-34.443.6h1.38V-15.985h-.989V-.529c-.184-.391-.529-1.1-.713-1.4l-8.257-14.053ZM-24,.6v-15.64h5.52v-.943H-30.533v.943h5.52V.6Zm8.05-16.583V.6h9.844V-.345h-8.832V-7.452h8.188v-.92h-8.188v-6.67h8.671v-.943ZM-2.5.6h1.012V-6.716H2.472a11.047,11.047,0,0,0,1.265-.069L7.326.6H8.406L4.75-6.992A3.992,3.992,0,0,0,7.993-11.2v-.506c0-3.059-2.116-4.278-5.451-4.278H-2.5Zm5.037-15.64c2.99,0,4.416,1.1,4.416,3.381v.437c0,2.323-1.426,3.565-4.6,3.565H-1.484v-7.383Zm9.016-.943V.6h.989V-14.858c.184.391.46.966.713,1.4L21.517.6H22.9V-15.985h-.989V-.529c-.184-.391-.529-1.1-.713-1.4L12.938-15.985ZM37.847.6h1.127L32.649-15.985H31.637L25.243.6h1.1l2.024-5.359h7.5ZM30.763-11.017c.506-1.334,1.012-2.6,1.38-3.887.391,1.288.92,2.553,1.4,3.887l1.978,5.359H28.716ZM41.32-15.985V.6h9.614V-.345h-8.6v-15.64Zm-89.183,30V30.6h9.844v-.943h-8.832V22.548h8.188v-.92h-8.188v-6.67h8.671v-.943Zm13.455,0V30.6h9.614v-.943h-8.6V14.015Zm12.19,0V30.6h9.844v-.943h-8.832V22.548h8.188v-.92h-8.188v-6.67h8.671v-.943Zm20.4,13.823h.874l4.554-9.2c.506-.989.92-1.817,1.357-2.829V30.6h.989V14.015h-1.2L-1.357,26.688-7.613,14.015h-1.15V30.6h.989V15.625c.368.851.8,1.771,1.288,2.714ZM10,14.015V30.6h9.844v-.943H11.017V22.548H19.2v-.92H11.017v-6.67h8.671v-.943Zm13.455,0V30.6h.989V15.142c.184.391.46.966.713,1.4L33.419,30.6H34.8V14.015H33.81V29.471c-.184-.391-.529-1.1-.713-1.4L24.84,14.015ZM43.861,30.6V14.958h5.52v-.943H37.329v.943h5.52V30.6Z" transform="translate(1015 5381)"/>
  </g>
</svg>
