<svg xmlns="http://www.w3.org/2000/svg" width="1021" height="280.151" viewBox="0 0 1021 280.151">
  <defs>
    <style>
      .cls-1 {
        fill: none;
        stroke: #85bbff;
        stroke-dasharray: 3 6;
      }

      .cls-2 {
        fill: #85bbff;
      }
    </style>
  </defs>
  <g id="그룹_46" data-name="그룹 46" transform="translate(-176 -5490.849)">
    <rect id="사각형_67" data-name="사각형 67" width="1021" height="279" transform="translate(176 5492)"/>
    <line id="선_7" data-name="선 7" class="cls-1" y1="19.651" transform="translate(352 5750.849)"/>
    <line id="선_8" data-name="선 8" class="cls-1" y1="19.651" transform="translate(1015 5750.849)"/>
    <line id="선_5" data-name="선 5" class="cls-1" y1="168" transform="translate(352 5490.849)"/>
    <line id="선_6" data-name="선 6" class="cls-1" y1="168" transform="translate(1015 5490.849)"/>
    <path id="패스_39" data-name="패스 39" class="cls-2" d="M-60.813.468v-12.24h4.32v-.738h-9.432v.738h4.32V.468ZM-46.467-12.51v5.8h-7.254v-5.8h-.792V.468h.792V-5.976h7.254V.468h.792V-12.51Zm3.96,0V.468h7.7V-.27h-6.912V-5.832h6.408v-.72h-6.408v-5.22h6.786v-.738ZM-27.477.468h.792v-5.22h3.2c2.718,0,4.23-1.26,4.23-3.69v-.4c0-2.394-1.458-3.672-4.176-3.672h-4.05Zm4.05-12.24c2.448,0,3.366,1.188,3.366,2.97v.342c0,1.818-.918,2.97-3.51,2.97h-3.114v-6.282ZM-9.387.468H-8.5l-4.95-12.978h-.792l-5,12.978h.864L-16.8-3.726h5.868Zm-5.544-9.09c.4-1.044.792-2.034,1.08-3.042.306,1.008.72,2,1.1,3.042L-11.2-4.428h-5.328ZM-6.669.468h.792V-5.256h3.1a8.645,8.645,0,0,0,.99-.054L1.017.468h.846L-1-5.472A3.124,3.124,0,0,0,1.539-8.766v-.4c0-2.394-1.656-3.348-4.266-3.348H-6.669Zm3.942-12.24c2.34,0,3.456.864,3.456,2.646v.342c0,1.818-1.116,2.79-3.6,2.79H-5.877v-5.778ZM13.1-12.51h-1.08L5.121-5.364V-12.51H4.329V.468h.792V-4.356L7.173-6.462,12.447.468h.972L7.731-7.02Zm21.1,0L30.9-.594,27.531-12.51h-.9L23.283-.576,20.025-12.51h-.846L22.815.468h.936L27.063-11.5,30.411.468h.936L34.983-12.51Zm3.024,0V.468h.792V-12.51ZM45.1.468v-12.24h4.32v-.738H39.987v.738h4.32V.468ZM59.445-12.51v5.8H52.191v-5.8H51.4V.468h.792V-5.976h7.254V.468h.792V-12.51Zm-155.394,30V30.468h3.834c3.1,0,5.166-1.98,5.166-5.562V23.052c0-3.582-1.836-5.562-5.166-5.562Zm.792.756h3.114c2.718,0,4.284,1.62,4.284,4.9v1.764c0,3.2-1.926,4.806-4.266,4.806h-3.132Zm10.872-.756V30.468h.792V17.49Zm3.96,0V30.468h.792V24.51h6.246v-.72h-6.246V18.228h6.624V17.49Zm9.972,0V30.468h.792V24.51h6.246v-.72h-6.246V18.228h6.624V17.49Zm9.972,0V30.468h7.7V29.73h-6.912V24.168h6.408v-.72h-6.408v-5.22H-52.8V17.49Zm10.53,12.978h.792V24.744h3.1a8.645,8.645,0,0,0,.99-.054l2.808,5.778h.846l-2.862-5.94a3.124,3.124,0,0,0,2.538-3.294v-.4c0-2.394-1.656-3.348-4.266-3.348h-3.942Zm3.942-12.24c2.34,0,3.456.864,3.456,2.646v.342c0,1.818-1.116,2.79-3.6,2.79h-3.006V18.228Zm7.056-.738V30.468h7.7V29.73h-6.912V24.168h6.408v-.72h-6.408v-5.22h6.786V17.49Zm10.53,0V30.468h.774v-12.1c.144.306.36.756.558,1.1l6.462,11h1.08V17.49h-.774v12.1c-.144-.306-.414-.864-.558-1.1l-6.462-11Zm15.966,12.978V18.228h4.32V17.49h-9.432v.738h4.32v12.24Zm19.332,0h.882L2.907,17.49H2.115l-5,12.978h.864l1.584-4.194H5.427Zm-5.544-9.09c.4-1.044.792-2.034,1.08-3.042.306,1.008.72,2,1.1,3.042l1.548,4.194H-.171ZM9.693,17.49V30.468h7.7V29.73H10.485V24.168h6.408v-.72H10.485v-5.22h6.786V17.49Zm14.22,12.42a6.358,6.358,0,0,1-3.906-1.278l-.4.666a7.261,7.261,0,0,0,4.32,1.368c2.754,0,4.3-1.584,4.3-3.276v-.5c0-2.07-.882-2.682-4.374-3.492-2.79-.63-3.15-1.4-3.15-2.538v-.414c0-1.674,1.728-2.394,3.258-2.394a6.171,6.171,0,0,1,3.42.936l.378-.648a6.415,6.415,0,0,0-3.8-1.044c-1.944,0-4.05.972-4.05,3.132v.45c0,1.26.288,2.52,3.6,3.24,3.438.738,3.924,1.332,3.924,2.79v.468C27.441,28.7,26.145,29.91,23.913,29.91Zm10.71.558V18.228h4.32V17.49H29.511v.738h4.32v12.24ZM48.969,17.49v5.8H41.715v-5.8h-.792V30.468h.792V24.024h7.254v6.444h.792V17.49Zm3.96,0V30.468h7.7V29.73H53.721V24.168h6.408v-.72H53.721v-5.22h6.786V17.49ZM67.383,30.468V18.228H71.7V17.49H62.271v.738h4.32v12.24Zm6.3-12.978V30.468h.792V17.49ZM85.869,28.6a5.562,5.562,0,0,1-3.6,1.314c-2.826,0-4.32-1.818-4.32-5.22v-1.8c0-2.952,1.458-4.842,4.068-4.842a5.7,5.7,0,0,1,3.564,1.062l.432-.612a6.716,6.716,0,0,0-4-1.206c-3.222,0-4.878,2.25-4.878,5.814v1.386c0,3.708,1.458,6.174,5.094,6.174a6.092,6.092,0,0,0,4.1-1.476Zm6.462,1.314a6.358,6.358,0,0,1-3.906-1.278l-.4.666a7.261,7.261,0,0,0,4.32,1.368c2.754,0,4.3-1.584,4.3-3.276v-.5c0-2.07-.882-2.682-4.374-3.492-2.79-.63-3.15-1.4-3.15-2.538v-.414c0-1.674,1.728-2.394,3.258-2.394a6.171,6.171,0,0,1,3.42.936l.378-.648a6.415,6.415,0,0,0-3.8-1.044c-1.944,0-4.05.972-4.05,3.132v.45c0,1.26.288,2.52,3.6,3.24,3.438.738,3.924,1.332,3.924,2.79v.468C95.859,28.7,94.563,29.91,92.331,29.91Z" transform="translate(352 5695)"/>
    <path id="패스_38" data-name="패스 38" class="cls-2" d="M-101.826.468v-12.24h4.32v-.738h-9.432v.738h4.32V.468ZM-87.48-12.51v5.8h-7.254v-5.8h-.792V.468h.792V-5.976h7.254V.468h.792V-12.51ZM-74.988.468h.882l-4.95-12.978h-.792l-5,12.978h.864L-82.4-3.726h5.868Zm-5.544-9.09c.4-1.044.792-2.034,1.08-3.042.306,1.008.72,2,1.1,3.042l1.548,4.194h-5.328ZM-69.246.468v-12.24h4.32v-.738h-9.432v.738h4.32V.468ZM-50.22-1.4A5.562,5.562,0,0,1-53.82-.09c-2.826,0-4.32-1.818-4.32-5.22v-1.8c0-2.952,1.458-4.842,4.068-4.842a5.7,5.7,0,0,1,3.564,1.062l.432-.612a6.716,6.716,0,0,0-4-1.206c-3.222,0-4.878,2.25-4.878,5.814v1.386c0,3.708,1.458,6.174,5.094,6.174a6.092,6.092,0,0,0,4.1-1.476ZM-37.98-6.84c0-3.42-1.674-5.868-4.986-5.868s-4.986,2.448-4.986,5.868V-5.2c0,3.42,1.674,5.868,4.986,5.868S-37.98-1.782-37.98-5.2Zm-.81,1.62c0,3.348-1.6,5.148-4.176,5.148s-4.176-1.8-4.176-5.148v-1.6c0-3.348,1.6-5.148,4.176-5.148s4.176,1.8,4.176,5.148Zm7.884,5.148c-2.034,0-3.726-1.1-3.726-4.626V-12.51h-.792v8.064c0,3.348,1.764,5.112,4.518,5.112s4.518-1.764,4.518-5.112V-12.51h-.792V-4.7C-27.18-1.17-28.872-.072-30.906-.072Zm7.578-12.438V.468H-15.8V-.27h-6.732V-12.51Zm9.54,0V.468h3.834c3.1,0,5.166-1.98,5.166-5.562V-6.948c0-3.582-1.836-5.562-5.166-5.562Zm.792.756h3.114c2.718,0,4.284,1.62,4.284,4.9v1.764c0,3.2-1.926,4.806-4.266,4.806H-13ZM2.376-12.51V.468h.792V-5.49H9.414v-.72H3.168v-5.562H9.792v-.738ZM17.028-.072C14.994-.072,13.3-1.17,13.3-4.7V-12.51H12.51v8.064C12.51-1.1,14.274.666,17.028.666S21.546-1.1,21.546-4.446V-12.51h-.792V-4.7C20.754-1.17,19.062-.072,17.028-.072ZM24.606-12.51V.468H32.13V-.27H25.4V-12.51Zm9.54,0V.468h.792V-5.49h6.246v-.72H34.938v-5.562h6.624v-.738Zm9.972,0V.468h.792V-12.51Zm3.96,0V.468H55.6V-.27H48.87V-12.51Zm9.54,0V.468h7.524V-.27H58.41V-12.51ZM75.582.468v-12.24H79.9v-.738H70.47v.738h4.32V.468ZM89.928-12.51v5.8H82.674v-5.8h-.792V.468h.792V-5.976h7.254V.468h.792V-12.51Zm3.96,0V.468h7.7V-.27H94.68V-5.832h6.408v-.72H94.68v-5.22h6.786v-.738Zm-216.2,30V30.468h.774v-12.1c.144.306.36.756.558,1.1l6.462,11h1.08V17.49h-.774v12.1c-.144-.306-.414-.864-.558-1.1l-6.462-11Zm12.042,0V30.468h7.7V29.73h-6.912V24.168h6.408v-.72h-6.408v-5.22h6.786V17.49Zm10.53,0V30.468h7.7V29.73h-6.912V24.168h6.408v-.72h-6.408v-5.22h6.786V17.49Zm10.53,0V30.468h3.834c3.1,0,5.166-1.98,5.166-5.562V23.052c0-3.582-1.836-5.562-5.166-5.562Zm.792.756H-85.3c2.718,0,4.284,1.62,4.284,4.9v1.764c0,3.2-1.926,4.806-4.266,4.806h-3.132ZM-73.854,29.91a6.358,6.358,0,0,1-3.906-1.278l-.4.666a7.261,7.261,0,0,0,4.32,1.368c2.754,0,4.3-1.584,4.3-3.276v-.5c0-2.07-.882-2.682-4.374-3.492-2.79-.63-3.15-1.4-3.15-2.538v-.414c0-1.674,1.728-2.394,3.258-2.394a6.171,6.171,0,0,1,3.42.936l.378-.648a6.415,6.415,0,0,0-3.8-1.044c-1.944,0-4.05.972-4.05,3.132v.45c0,1.26.288,2.52,3.6,3.24,3.438.738,3.924,1.332,3.924,2.79v.468C-70.326,28.7-71.622,29.91-73.854,29.91ZM-53.1,23.16c0-3.42-1.674-5.868-4.986-5.868s-4.986,2.448-4.986,5.868V24.8c0,3.42,1.674,5.868,4.986,5.868S-53.1,28.218-53.1,24.8Zm-.81,1.62c0,3.348-1.6,5.148-4.176,5.148s-4.176-1.8-4.176-5.148v-1.6c0-3.348,1.6-5.148,4.176-5.148s4.176,1.8,4.176,5.148Zm3.474-7.29V30.468h.792V24.51H-43.4v-.72h-6.246V18.228h6.624V17.49Zm13.212,0,4.752,12.978h.918L-26.82,17.49h-.846l-4.32,12.024L-36.342,17.49ZM-17.64,30.468h.882l-4.95-12.978H-22.5l-5,12.978h.864l1.584-4.194h5.868Zm-5.544-9.09c.4-1.044.792-2.034,1.08-3.042.306,1.008.72,2,1.1,3.042l1.548,4.194h-5.328Zm8.262,9.09h.792V24.744h3.1a8.645,8.645,0,0,0,.99-.054l2.808,5.778h.846l-2.862-5.94a3.124,3.124,0,0,0,2.538-3.294v-.4c0-2.394-1.656-3.348-4.266-3.348h-3.942Zm3.942-12.24c2.34,0,3.456.864,3.456,2.646v.342c0,1.818-1.116,2.79-3.6,2.79H-14.13V18.228Zm7.056-.738V30.468h.792V17.49ZM9.5,23.16c0-3.42-1.674-5.868-4.986-5.868S-.468,19.74-.468,23.16V24.8c0,3.42,1.674,5.868,4.986,5.868S9.5,28.218,9.5,24.8Zm-.81,1.62c0,3.348-1.6,5.148-4.176,5.148S.342,28.128.342,24.78v-1.6c0-3.348,1.6-5.148,4.176-5.148s4.176,1.8,4.176,5.148Zm7.884,5.148c-2.034,0-3.726-1.1-3.726-4.626V17.49H12.06v8.064c0,3.348,1.764,5.112,4.518,5.112S21.1,28.9,21.1,25.554V17.49H20.3V25.3C20.3,28.83,18.612,29.928,16.578,29.928Zm11.268-.018a6.358,6.358,0,0,1-3.906-1.278l-.4.666a7.261,7.261,0,0,0,4.32,1.368c2.754,0,4.3-1.584,4.3-3.276v-.5c0-2.07-.882-2.682-4.374-3.492-2.79-.63-3.15-1.4-3.15-2.538v-.414c0-1.674,1.728-2.394,3.258-2.394a6.171,6.171,0,0,1,3.42.936l.378-.648a6.415,6.415,0,0,0-3.8-1.044c-1.944,0-4.05.972-4.05,3.132v.45c0,1.26.288,2.52,3.6,3.24,3.438.738,3.924,1.332,3.924,2.79v.468C31.374,28.7,30.078,29.91,27.846,29.91Zm19.818.558h.882L43.6,17.49H42.8l-5,12.978h.864l1.584-4.194h5.868Zm-5.544-9.09c.4-1.044.792-2.034,1.08-3.042.306,1.008.72,2,1.1,3.042l1.548,4.194H40.518ZM58.32,28.6a5.562,5.562,0,0,1-3.6,1.314c-2.826,0-4.32-1.818-4.32-5.22v-1.8c0-2.952,1.458-4.842,4.068-4.842a5.7,5.7,0,0,1,3.564,1.062l.432-.612a6.716,6.716,0,0,0-4-1.206c-3.222,0-4.878,2.25-4.878,5.814v1.386c0,3.708,1.458,6.174,5.094,6.174a6.092,6.092,0,0,0,4.1-1.476Zm6.7,1.872V18.228h4.32V17.49H59.9v.738h4.32v12.24Zm6.3-12.978V30.468h.792V17.49Zm2.7,0,4.752,12.978h.918L84.42,17.49h-.846l-4.32,12.024L74.9,17.49Zm12.312,0V30.468h.792V17.49Zm7.884,12.978V18.228h4.32V17.49H89.1v.738h4.32v12.24Zm6.3-12.978V30.468h.792V17.49Zm3.96,0V30.468h7.7V29.73h-6.912V24.168h6.408v-.72h-6.408v-5.22h6.786V17.49Zm14.22,12.42a6.358,6.358,0,0,1-3.906-1.278l-.4.666a7.261,7.261,0,0,0,4.32,1.368c2.754,0,4.3-1.584,4.3-3.276v-.5c0-2.07-.882-2.682-4.374-3.492-2.79-.63-3.15-1.4-3.15-2.538v-.414c0-1.674,1.728-2.394,3.258-2.394a6.171,6.171,0,0,1,3.42.936l.378-.648a6.415,6.415,0,0,0-3.8-1.044c-1.944,0-4.05.972-4.05,3.132v.45c0,1.26.288,2.52,3.6,3.24,3.438.738,3.924,1.332,3.924,2.79v.468C122.22,28.7,120.924,29.91,118.692,29.91Z" transform="translate(1015 5695)"/>
  </g>
</svg>
