<svg xmlns="http://www.w3.org/2000/svg" width="1079" height="820.94" viewBox="0 0 1079 820.94">
  <defs>
    <style>
      .cls-1 {
        fill: none;
        stroke: #85bbff;
        stroke-dasharray: 3 6;
      }

      .cls-2 {
        fill: #fff;
      }

      .cls-3 {
        fill: #85bbff;
      }
    </style>
  </defs>
  <g id="그룹_48" data-name="그룹 48" transform="translate(-144 -6423)">
    <rect id="사각형_69" data-name="사각형 69" width="1079" height="819" transform="translate(144 6423)"/>
    <line id="선_9" data-name="선 9" class="cls-1" y1="138" transform="translate(351 6423)"/>
    <path id="패스_9" data-name="패스 9" class="cls-1" d="M0,138V0" transform="translate(1015 6423)"/>
    <path id="패스_10" data-name="패스 10" class="cls-1" d="M0,77.94V0" transform="translate(1015 6668)"/>
    <path id="패스_11" data-name="패스 11" class="cls-1" d="M0,351.467V0" transform="translate(1015 6892.473)"/>
    <path id="패스_12" data-name="패스 12" class="cls-1" d="M0,167.535V0" transform="translate(351 7076.405)"/>
    <g id="그룹_16" data-name="그룹 16" transform="translate(-1 -31)">
      <path id="패스_87" data-name="패스 87" class="cls-2" d="M-123.349-15.893h-9.384V-2.6h4.393a43.874,43.874,0,0,0,7.107-.552l-.138-.92A37.322,37.322,0,0,1-128-3.519h-3.749V-14.973h8.395Zm9.062,6.026h-3.726V-17.8H-119V3.036h.989V-8.947h3.726Zm17.158,12.9V-17.8h-.989V3.036Zm-10.833-5.267c3.381,0,5.037-2.461,5.037-6.026v-2c0-3.565-1.656-6.026-5.037-6.026S-113-13.823-113-10.258v2C-113-4.692-111.343-2.231-107.962-2.231Zm0-13.133c2.737,0,4.048,2.093,4.048,5.382v1.449c0,3.289-1.311,5.382-4.048,5.382s-4.048-2.093-4.048-5.382V-9.982C-112.01-13.271-110.7-15.364-107.962-15.364Zm33.143,5.428h-3.726V-17.8h-.989V3.036h.989V-9.016h3.726Zm-17.112-6.187h-.989v13.34h4.807a36.885,36.885,0,0,0,6.486-.552l-.138-.92a33.079,33.079,0,0,1-6.118.552h-4.048Zm34.408,10.3V-17.8h-.989V-5.819ZM-63.94-16.583h-9.269v9.177h9.269Zm-8.28.92h7.291v7.337H-72.22Zm1.656,12.144h12.075v6.67h.966v-7.59H-70.564Zm35.42-7.774h-3.427V-17.8h-.989V-2.6h.989v-7.774h3.427Zm-7.475-3.887h-5.589v-2.829H-49.2v2.829h-5.451v.874h12.029ZM-48.691-4.807c2.484,0,4.669-1.38,4.669-3.4V-9.453c0-2.024-2.185-3.4-4.669-3.4s-4.669,1.4-4.669,3.4v1.242C-53.36-6.187-51.175-4.807-48.691-4.807Zm0-.874c-2,0-3.726-1.035-3.726-2.553v-1.2c0-1.518,1.748-2.553,3.726-2.553s3.726,1.035,3.726,2.553v1.2C-44.965-6.716-46.69-5.681-48.691-5.681ZM-49.7-2.99h-.989V2.76h12.834V1.84H-49.7Zm39.928-9.453H-13.2V-17.8h-.989V-5.566h.989v-5.957h3.427Zm-9.43,15.985c3.818,0,6.141-1.748,6.141-3.818V-1.1c0-2.07-2.323-3.818-6.141-3.818S-25.346-3.174-25.346-1.1v.828C-25.346,1.794-23.023,3.542-19.205,3.542Zm0-7.567c3.174,0,5.152,1.38,5.152,2.921v.828c0,1.541-1.978,2.921-5.152,2.921s-5.152-1.38-5.152-2.921V-1.1C-24.357-2.645-22.379-4.025-19.205-4.025Zm-4.117-7.291a6.639,6.639,0,0,0,1.863,2.047c.851.736,1.978,1.656,3.036,2.415l.575-.713a34.026,34.026,0,0,1-3.312-2.645c-1.587-1.472-1.748-1.978-1.748-3.749v-2.9H-23.92v2.875c0,1.84.069,2.208-1.725,3.956a43.979,43.979,0,0,1-3.7,3.105l.621.736c1.541-1.219,2.53-2.07,3.381-2.852a8.38,8.38,0,0,0,2-2.277ZM10-12.443H6.578V-17.8H5.589V-5.566h.989v-5.957H10ZM.575,3.542c3.818,0,6.141-1.748,6.141-3.818V-1.1c0-2.07-2.323-3.818-6.141-3.818S-5.566-3.174-5.566-1.1v.828C-5.566,1.794-3.243,3.542.575,3.542Zm0-7.567c3.174,0,5.152,1.38,5.152,2.921v.828c0,1.541-1.978,2.921-5.152,2.921S-4.577,1.265-4.577-.276V-1.1C-4.577-2.645-2.6-4.025.575-4.025Zm-4.117-7.291A6.639,6.639,0,0,0-1.679-9.269C-.828-8.533.3-7.613,1.357-6.854l.575-.713A34.026,34.026,0,0,1-1.38-10.212c-1.587-1.472-1.748-1.978-1.748-3.749v-2.9H-4.14v2.875c0,1.84.069,2.208-1.725,3.956a43.979,43.979,0,0,1-3.7,3.105l.621.736c1.541-1.219,2.53-2.07,3.381-2.852a8.38,8.38,0,0,0,2-2.277ZM27.485-5.129V-17.8h-.966v3.082H21.643v.92h4.876v2.783H21.643v.92h4.876v4.968ZM11.661-6.3A88.736,88.736,0,0,0,23-6.739l-.092-.92a83.59,83.59,0,0,1-10.281.437v-3.864h7.245v-5.658H11.661v.9h7.245v3.864H11.661Zm2.76,3.473h12.1v5.98h.966v-6.9H14.421ZM29.969-8.234v.851H49.151v-.851ZM46.828,3.082V2.231H33.9V-.644H46.207V-5.152H32.821V-4.3h12.42v2.829H32.936V3.082ZM39.56-17.5c-3.174,0-6.394,1.058-6.394,3.427v.506c0,2.369,3.22,3.427,6.394,3.427s6.394-1.15,6.394-3.427v-.506C45.954-16.445,42.734-17.5,39.56-17.5Zm0,6.463c-2.668,0-5.4-.759-5.4-2.576v-.391c0-1.84,2.737-2.6,5.4-2.6s5.4.759,5.4,2.6v.391C44.965-11.891,42.228-11.04,39.56-11.04ZM72.519,3.036V-17.8H71.53V3.036ZM57.27-1.955c6.624-3.726,8.487-5.428,8.487-9.614v-4.209H56.81v.92h7.981v3.22c0,3.473-1.2,5.014-8.05,8.832ZM80.385-3.887H79.4V2.76H92.322V1.84H80.385Zm5.106-2.622V-16.767H84.5V-12.7H77.441v-4.071h-.989V-6.509Zm9.545-4.83H91.609V-17.8H90.62v14.95h.989v-7.567h3.427Zm-17.6-.46H84.5v4.393H77.441ZM95.059-.966v.9h19.182v-.9Zm9.591-4.761c3.68,0,6.716-2.07,6.716-4.807v-1.058c0-2.852-3.036-4.784-6.716-4.784-3.726,0-6.716,1.932-6.716,4.784v1.058C97.934-7.8,100.947-5.727,104.65-5.727Zm0-9.706c3.358,0,5.727,1.7,5.727,3.864v1.012c0,2.162-2.369,3.887-5.727,3.887-3.4,0-5.727-1.725-5.727-3.887v-1.012C98.923-13.731,101.246-15.433,104.65-15.433ZM131.468-5.405v-.874H118.749v-4.094h12.259v-5.8H117.76v.874h12.3v4.071H117.806v5.819h6.118V-.943h-9.085v.874h19.182V-.943h-9.108V-5.405Z" transform="translate(352 6706)"/>
      <path id="패스_86" data-name="패스 86" class="cls-3" d="M-84.84.312h3.072c1.872,0,2.64-.852,2.64-2.268V-2.28A1.816,1.816,0,0,0-80.94-4.236a1.689,1.689,0,0,0,1.416-1.728V-6.24c0-1.416-.828-2.1-2.64-2.1H-84.84Zm.516-4.3h2.28c1.728,0,2.376.612,2.376,1.74v.288c0,1.212-.684,1.788-2.052,1.788h-2.6Zm2.208-3.876c1.512,0,2.064.6,2.064,1.62V-6c0,1.08-.8,1.548-2,1.548h-2.268V-7.86ZM-77.568.312h.528V-3.5h2.064a5.764,5.764,0,0,0,.66-.036L-72.444.312h.564l-1.908-3.96a2.083,2.083,0,0,0,1.692-2.2v-.264c0-1.6-1.1-2.232-2.844-2.232h-2.628Zm2.628-8.16c1.56,0,2.3.576,2.3,1.764v.228c0,1.212-.744,1.86-2.4,1.86h-2V-7.848ZM-64.548.312h.588l-3.3-8.652h-.528L-71.124.312h.576l1.056-2.8h3.912Zm-3.7-6.06c.264-.7.528-1.356.72-2.028.2.672.48,1.332.732,2.028l1.032,2.8h-3.552Zm5.508-2.592V.312h.516V-7.752c.1.2.24.5.372.732L-57.54.312h.72V-8.34h-.516V-.276c-.1-.2-.276-.576-.372-.732L-62.016-8.34Zm8.028,0V.312h2.556c2.064,0,3.444-1.32,3.444-3.708V-4.632c0-2.388-1.224-3.708-3.444-3.708Zm.528.5H-52.1c1.812,0,2.856,1.08,2.856,3.264V-3.4c0,2.136-1.284,3.2-2.844,3.2H-54.18ZM-41.472-.06a4.239,4.239,0,0,1-2.6-.852l-.264.444a4.841,4.841,0,0,0,2.88.912c1.836,0,2.868-1.056,2.868-2.184v-.336c0-1.38-.588-1.788-2.916-2.328-1.86-.42-2.1-.936-2.1-1.692v-.276c0-1.116,1.152-1.6,2.172-1.6a4.114,4.114,0,0,1,2.28.624l.252-.432a4.277,4.277,0,0,0-2.532-.7c-1.3,0-2.7.648-2.7,2.088v.3c0,.84.192,1.68,2.4,2.16,2.292.492,2.616.888,2.616,1.86v.312C-39.12-.864-39.984-.06-41.472-.06Zm4.524.372h.528v-3.48h2.136c1.812,0,2.82-.84,2.82-2.46v-.264c0-1.6-.972-2.448-2.784-2.448h-2.7Zm2.7-8.16c1.632,0,2.244.792,2.244,1.98v.228c0,1.212-.612,1.98-2.34,1.98H-36.42V-7.848ZM-30-8.34V.312h.528V-8.34ZM-27.36.312h.528V-3.5h2.064a5.764,5.764,0,0,0,.66-.036L-22.236.312h.564l-1.908-3.96a2.083,2.083,0,0,0,1.692-2.2v-.264c0-1.6-1.1-2.232-2.844-2.232H-27.36Zm2.628-8.16c1.56,0,2.3.576,2.3,1.764v.228c0,1.212-.744,1.86-2.4,1.86h-2V-7.848Zm4.7-.492V.312h.528V-8.34ZM-14.772.312v-8.16h2.88V-8.34H-18.18v.492h2.88V.312Zm10.56,0V-8.34h-.312L-7.4-6.576l.24.42L-4.74-7.62V.312Zm3.7-.7H.492v-1.08H-.516Zm0-5.256H.492V-6.72H-.516Zm6.1-2.7V.312H8.136C10.2.312,11.58-1.008,11.58-3.4V-4.632c0-2.388-1.224-3.708-3.444-3.708Zm.528.5H8.184c1.812,0,2.856,1.08,2.856,3.264V-3.4c0,2.136-1.284,3.2-2.844,3.2H6.108Zm12.48-.5h-.576L15.42-3.756,12.72-8.34h-.564l2.988,5.064V.312h.528V-3.276Zm1.344,0V.312h.516V-7.752c.1.2.24.5.372.732L25.128.312h.72V-8.34h-.516V-.276c-.1-.2-.276-.576-.372-.732L20.652-8.34ZM33.648.312h.588l-3.3-8.652h-.528L27.072.312h.576l1.056-2.8h3.912Zm-3.7-6.06c.264-.7.528-1.356.72-2.028.2.672.48,1.332.732,2.028l1.032,2.8H28.884Zm9.132,4.62h.456l2.376-4.8c.264-.516.48-.948.708-1.476V.312h.516V-8.34h-.624L39.324-1.728,36.06-8.34h-.6V.312h.516V-7.5c.192.444.42.924.672,1.416ZM45.252-8.34V.312h.528V-8.34Zm8.124,7.4a3.708,3.708,0,0,1-2.4.876c-1.884,0-2.88-1.212-2.88-3.48v-1.2c0-1.968.972-3.228,2.712-3.228a3.8,3.8,0,0,1,2.376.708l.288-.408a4.477,4.477,0,0,0-2.664-.8c-2.148,0-3.252,1.5-3.252,3.876v.924c0,2.472.972,4.116,3.4,4.116A4.062,4.062,0,0,0,53.688-.54ZM58.224.312h.528v-3.48h2.136c1.812,0,2.82-.84,2.82-2.46v-.264c0-1.6-.972-2.448-2.784-2.448h-2.7Zm2.7-8.16c1.632,0,2.244.792,2.244,1.98v.228c0,1.212-.612,1.98-2.34,1.98H58.752V-7.848Zm9.36,8.16h.588l-3.3-8.652h-.528L63.708.312h.576l1.056-2.8h3.912Zm-3.7-6.06c.264-.7.528-1.356.72-2.028.2.672.48,1.332.732,2.028l1.032,2.8H65.52ZM72.1.312h.528V-3.5h2.064a5.764,5.764,0,0,0,.66-.036L77.22.312h.564l-1.908-3.96a2.083,2.083,0,0,0,1.692-2.2v-.264c0-1.6-1.1-2.232-2.844-2.232H72.1Zm2.628-8.16c1.56,0,2.3.576,2.3,1.764v.228c0,1.212-.744,1.86-2.4,1.86h-2V-7.848ZM85.272-8.34h-.72l-4.6,4.764V-8.34h-.528V.312h.528V-2.9l1.368-1.4L84.84.312h.648L81.7-4.68Z" transform="translate(352 6649)"/>
    </g>
    <path id="패스_52" data-name="패스 52" class="cls-2" d="M-146.717-17.135v7.728h13.409v-.874h-12.42v-6.854Zm7.153,20.171v-7.8h9.085v-.874h-19.182v.874h9.108v7.8Zm25.047-9.66a36.185,36.185,0,0,0,.736-7.429v-2.3h-13.478v.874h12.512v1.955a35.816,35.816,0,0,1-.759,6.9h-14.375v.874h9.062V3.036h.989V-5.75h9.131v-.874Zm24.058-3.312h-3.726V-17.8h-.989V3.036h.989V-9.016h3.726Zm-17.112-6.187h-.989v13.34h4.807a36.885,36.885,0,0,0,6.486-.552l-.138-.92a33.079,33.079,0,0,1-6.118.552h-4.048ZM-78.315-8.3a6.558,6.558,0,0,0,1.633,2.139c1.035,1.058,2.392,2.392,3.657,3.565l.667-.667c-1.472-1.357-2.9-2.737-4-3.933a4.429,4.429,0,0,1-1.518-3.841v-3.887h5.083v-.9H-83.95v.9h5.083v3.887a5,5,0,0,1-1.61,4.232,43.505,43.505,0,0,1-4,3.933l.667.713c1.334-1.15,2.875-2.76,3.542-3.473A8.631,8.631,0,0,0-78.338-8.3Zm13.5-1.288H-68.54V-17.8h-.989V3.036h.989V-8.671h3.726ZM-47.748-2.9V-17.8h-.989V-2.9ZM-59.179-4.14h-.989V2.783H-47.2v-.92H-59.179Zm.9-6.578a6.639,6.639,0,0,0,1.863,2.047c.851.736,1.978,1.656,3.036,2.415l.575-.713A34.025,34.025,0,0,1-56.12-9.614c-1.587-1.472-1.748-1.978-1.748-3.749v-3.45H-58.88v3.427c0,1.84.069,2.208-1.725,3.956a43.979,43.979,0,0,1-3.7,3.105l.621.736c1.541-1.219,2.53-2.07,3.381-2.852a8.38,8.38,0,0,0,2-2.277ZM-27.416,3.036V-17.8h-1.012V3.036Zm-17-4.83A115.154,115.154,0,0,0-30.383-2.3l-.092-.9a119.739,119.739,0,0,1-13.938.506Zm11.753-10.35c0-2.622-2.806-4.186-5.313-4.186s-5.313,1.564-5.313,4.14v1.4c0,2.576,2.806,4.117,5.313,4.117s5.313-1.541,5.313-4.163Zm-.966,1.265c0,1.84-1.955,3.312-4.347,3.312s-4.347-1.472-4.347-3.266v-1.311c0-1.794,1.955-3.266,4.347-3.266s4.347,1.472,4.347,3.312ZM-9.2,3.542c3.8,0,6.141-1.633,6.141-3.7v-.851c0-2.07-2.346-3.7-6.141-3.7s-6.141,1.633-6.141,3.7v.851C-15.341,1.909-12.995,3.542-9.2,3.542Zm0-7.36c3.174,0,5.152,1.265,5.152,2.806v.851c0,1.541-1.978,2.806-5.152,2.806S-14.352,1.38-14.352-.161v-.851C-14.352-2.553-12.374-3.818-9.2-3.818Zm-3.8-6.739c.161.46.713,1.012,1.863,1.978.851.713,2.07,1.656,3.059,2.346l.552-.69a37.68,37.68,0,0,1-3.312-2.53c-1.725-1.541-1.771-1.886-1.771-3.7v-1.219h4.968v-.9H-12.6v-2.737h-.989v2.737h-5.129v.9h5.129v1.219c0,1.84.115,2.185-1.725,3.887a39.851,39.851,0,0,1-3.7,2.967l.6.713c1.449-1.081,2.53-1.955,3.4-2.714a6.833,6.833,0,0,0,2-2.254ZM.23-12.305H-3.2v-5.5h-.989v12.4H-3.2v-5.98H.23ZM17.894,3.036V-17.8H16.882V3.036ZM.9-1.794A115.154,115.154,0,0,0,14.927-2.3l-.092-.9A119.739,119.739,0,0,1,.9-2.691ZM12.65-12.144c0-2.622-2.806-4.186-5.313-4.186s-5.313,1.564-5.313,4.14v1.4c0,2.576,2.806,4.117,5.313,4.117s5.313-1.541,5.313-4.163Zm-.966,1.265c0,1.84-1.955,3.312-4.347,3.312S2.99-9.039,2.99-10.833v-1.311c0-1.794,1.955-3.266,4.347-3.266s4.347,1.472,4.347,3.312Zm15.134-.138c.161.46.713,1.012,1.863,1.978.851.713,2.07,1.656,3.059,2.346l.552-.69a37.68,37.68,0,0,1-3.312-2.53c-1.725-1.541-1.771-1.886-1.771-3.7v-2h4.83v-.9H21.229v.9H26.22v2c0,1.84.115,2.185-1.725,3.887a39.851,39.851,0,0,1-3.7,2.967l.6.713C22.839-7.13,23.92-8,24.794-8.763a6.833,6.833,0,0,0,2-2.254ZM24.242-3.473H36.363V3.151h.966V-4.393H24.242Zm7.245-7.981H36.34v5.681h.989V-17.8H36.34v5.428H31.487Zm25.576,8.6V-17.8h-.989v14.95Zm-11.546-1.1h-.989V2.783H57.592v-.92H45.517Zm.414-12.857c-2.714,0-5.037,2-5.037,4.416v1.518c0,2.415,2.323,4.416,5.037,4.416s5.037-2,5.037-4.416V-12.4C50.968-14.812,48.645-16.813,45.931-16.813Zm0,9.407a3.823,3.823,0,0,1-4.048-3.657v-1.15a3.823,3.823,0,0,1,4.048-3.657,3.823,3.823,0,0,1,4.048,3.657v1.15A3.823,3.823,0,0,1,45.931-7.406ZM81.7-3.772H75.463v-3.22h9.108v-.874H65.389v.874H74.5v3.22H68.264V2.967H81.7ZM80.73,2.093H69.23V-2.9h11.5ZM74.98-17.388c-3.174,0-6.394,1.012-6.394,3.565v.575c0,2.576,3.22,3.588,6.394,3.588s6.394-1.1,6.394-3.588v-.575C81.374-16.376,78.154-17.388,74.98-17.388Zm0,6.831c-2.668,0-5.4-.644-5.4-2.714v-.483c0-2.093,2.737-2.737,5.4-2.737s5.4.644,5.4,2.737v.483C80.385-11.293,77.648-10.557,74.98-10.557Zm17.066-.552c.161.46.713,1.012,1.863,1.978.851.713,2.07,1.656,3.059,2.346l.552-.69a37.68,37.68,0,0,1-3.312-2.53c-1.725-1.541-1.771-1.886-1.771-3.7v-1.909h4.83v-.9H86.457v.9h4.991v1.909c0,1.84.115,2.185-1.725,3.887a39.851,39.851,0,0,1-3.7,2.967l.6.713c1.449-1.081,2.53-1.955,3.4-2.714a6.833,6.833,0,0,0,2-2.254ZM89.24-3.5h12.121V3.151h.966V-4.416H89.24Zm12.1-2.3h.989V-17.8h-.989Zm20.769-.46V-17.8h-.989V-6.256ZM109.618-4.807V2.967h12.489V-4.807Zm.989.92h10.511V2.047H110.607Zm5.382-8.878c0-2.438-2.346-4.186-4.991-4.186s-4.991,1.748-4.991,4.186V-11.5c0,2.461,2.346,4.186,4.991,4.186s4.991-1.748,4.991-4.186ZM115-11.638c0,1.955-1.7,3.381-4,3.381s-4-1.426-4-3.381v-.989c0-1.955,1.7-3.381,4-3.381s4,1.426,4,3.381Zm9.729,3.4v.851h19.182v-.851ZM141.588,3.082V2.231H128.662V-.644h12.305V-5.152H127.581V-4.3H140v2.829H127.7V3.082ZM134.32-17.5c-3.174,0-6.394,1.058-6.394,3.427v.506c0,2.369,3.22,3.427,6.394,3.427s6.394-1.15,6.394-3.427v-.506C140.714-16.445,137.494-17.5,134.32-17.5Zm0,6.463c-2.668,0-5.4-.759-5.4-2.576v-.391c0-1.84,2.737-2.6,5.4-2.6s5.4.759,5.4,2.6v.391C139.725-11.891,136.988-11.04,134.32-11.04ZM-156.17,41.7a6.558,6.558,0,0,0,1.633,2.139c1.035,1.058,2.392,2.392,3.657,3.565l.667-.667c-1.472-1.357-2.9-2.737-4-3.933a4.429,4.429,0,0,1-1.518-3.841V35.073h5.083v-.9H-161.8v.9h5.083V38.96a5,5,0,0,1-1.61,4.232,43.506,43.506,0,0,1-4,3.933l.667.713c1.334-1.15,2.875-2.76,3.542-3.473a8.631,8.631,0,0,0,1.932-2.668Zm13.5-1.288h-3.726V32.2h-.989V53.036h.989V41.329h3.726Zm13.8,12.627V45.469h5.4V44.6h-19.182v.874h5.4v7.567h.966V45.469h6.44v7.567Zm-4.186-10.879c3.4,0,6.716-1.587,6.716-4.186V36.959c0-2.714-3.312-4.163-6.716-4.163-3.45,0-6.716,1.449-6.716,4.163v1.012C-139.771,40.57-136.482,42.157-133.055,42.157Zm0-8.418c3.082,0,5.727,1.219,5.727,3.243v.966c0,2.024-2.645,3.266-5.727,3.266-3.128,0-5.727-1.242-5.727-3.266v-.966C-138.782,34.958-136.183,33.739-133.055,33.739Zm25.576,12.029v2.645h-11.592V45.768h-.966V52.99h13.524V45.768Zm1.242-5.2v-.851h-12.7V37.1h12.19V32.842H-119.9v.851h12.213v2.576h-12.19v4.3h6.118v2.576h-9.108v.874h19.182v-.874h-9.108V40.57Zm-12.834,11.569V49.264h11.592v2.875Zm23.483-14.283c0,4.715-1.035,5.451-6.969,9.66l.575.805c4.485-3.1,6.3-4.6,6.992-7.038h4.508V52h.989V32.635h-.989v7.728h-4.3a18.042,18.042,0,0,0,.161-2.668V34.314h-7.705v.92h6.739Zm9.2,15.18h.989V32.2h-.989ZM-60.4,43.33v-.851H-63.94V34.912h3.312v-.851h-14.7v.851h3.312v7.567h-3.542v.851h3.864v5.727h-5.865v.874h19.182v-.874h-5.865V43.33Zm-10.649-8.418h6.141v7.567h-6.141Zm.322,14.145V43.33h5.52v5.727Zm29.808,4.025v-.851H-53.843V49.517h12.305V45.17H-47.7V42.226h9.108v-.851H-57.776v.851h9.108V45.17h-6.256v.851H-42.5v2.668H-54.809v4.393Zm-7.245-16.169c.437.874,2,1.426,3.7,1.978,1.15.368,2.369.69,3.864,1.127l.3-.782c-1.564-.414-2.392-.644-3.864-1.1-2.668-.828-3.5-1.357-3.5-3.036V34.82h6.6v-.828h-6.6V31.83h-1.012v2.162h-6.647v.828h6.647V35.1c0,1.679-.828,2.208-3.5,3.036-1.472.46-2.3.69-3.864,1.1l.3.782c1.495-.437,2.714-.759,3.864-1.127C-50.163,38.339-48.6,37.787-48.162,36.913Zm30.038,4.071H-21.85V32.2h-.989V53.036h.989V41.9h3.726Zm-19.78-5.29v.92h12.121v-.92h-5.566v-3.4h-.989v3.4Zm6.049,12.42c3.128,0,4.807-2.185,4.807-4.232v-1.2c0-2.047-1.679-4.232-4.807-4.232s-4.807,2.185-4.807,4.232v1.2C-36.662,45.929-34.983,48.114-31.855,48.114Zm0-8.74a3.536,3.536,0,0,1,3.841,3.335v1.15a3.536,3.536,0,0,1-3.841,3.335A3.536,3.536,0,0,1-35.7,43.859v-1.15A3.536,3.536,0,0,1-31.855,39.374Zm22.287,9.683V40.731h-.989v8.326h-7.659v.874H.966v-.874Zm-6.164-14.812v.9H-2.944V37.3A45.076,45.076,0,0,1-3.818,46l.943.115a47.684,47.684,0,0,0,.9-9.407V34.245Zm40.2,9.085v-.851H20.93V34.912h3.312v-.851H9.545v.851h3.312v7.567H9.315v.851h3.864v5.727H7.314v.874H26.5v-.874H20.631V43.33ZM13.823,34.912h6.141v7.567H13.823Zm.322,14.145V43.33h5.52v5.727ZM44.3,47.4V32.2h-.966v5.7h-4v.92h4v3.565h-4v.92h4V47.4ZM39.4,34.82H33.672V31.945h-.989V34.82H27.278v.874H39.4Zm-6.21,10.373c2.484,0,4.669-1.38,4.669-3.4V40.547c0-2.024-2.185-3.4-4.669-3.4s-4.669,1.4-4.669,3.4v1.242C28.52,43.813,30.705,45.193,33.189,45.193Zm0-.874c-2,0-3.726-1.035-3.726-2.553v-1.2c0-1.518,1.748-2.553,3.726-2.553s3.726,1.035,3.726,2.553v1.2C36.915,43.284,35.19,44.319,33.189,44.319Zm-.414,2.668h-.989V52.76H44.919v-.92H32.775ZM66.631,37.35H63.2V32.2h-.989V43.4H63.2V38.27h3.427Zm-7.475-3.082H53.567v-2.53h-.989v2.53H47.127v.874H59.156Zm-6.072,8.855c2.484,0,4.669-1.081,4.669-2.9v-.92c0-1.817-2.185-2.9-4.669-2.9s-4.669,1.1-4.669,2.9v.92C48.415,42.042,50.6,43.123,53.084,43.123Zm0-.874c-2,0-3.726-.736-3.726-2.047v-.874c0-1.311,1.748-2.047,3.726-2.047s3.726.736,3.726,2.047V40.2C56.81,41.513,55.085,42.249,53.084,42.249ZM63.71,53.036v-.9H51.842V49.356H63.2V44.825H50.761v.9H62.238v2.76H50.876v4.554ZM82,37.327c.414.966,1.886,1.679,3.7,2.6,1.334.667,2.484,1.1,3.979,1.7l.391-.782c-1.495-.575-2.553-.989-4.025-1.7C83.674,37.994,82.5,37.4,82.5,35.418V32.934H81.489v2.484c0,1.978-1.173,2.576-3.542,3.726-1.472.713-2.53,1.127-4.025,1.7l.391.782c1.5-.6,2.645-1.035,3.979-1.7C80.109,39.006,81.581,38.293,82,37.327ZM82.5,53.036v-7.8h9.085v-.874H72.4v.874h9.108v7.8Zm32.591-9.591V32.2H114.1V43.445Zm-6.509,9.568c.759-.644,1.4-1.242,2.024-1.84a7.7,7.7,0,0,0,1.725-2.047,5.826,5.826,0,0,0,1.633,1.84c.552.483,1.495,1.265,2.553,2.07l.6-.759c-1.035-.759-2.047-1.541-2.645-2.093a3.941,3.941,0,0,1-1.679-3.634V44.8h-.966v1.886a3.557,3.557,0,0,1-1.265,3.22c-.644.667-1.38,1.357-1.978,1.863-.6-.506-1.334-1.2-1.978-1.863a3.557,3.557,0,0,1-1.265-3.22V44.8h-.966V46.55a3.96,3.96,0,0,1-1.7,3.634c-.6.552-1.61,1.334-2.645,2.093l.6.759c1.058-.805,2-1.587,2.553-2.07a6.006,6.006,0,0,0,1.656-1.84,7.7,7.7,0,0,0,1.725,2.047C107.18,51.771,107.824,52.369,108.583,53.013Zm.391-15.893c0-2.438-2.346-4.186-4.991-4.186s-4.991,1.748-4.991,4.186v1.334c0,2.461,2.346,4.186,4.991,4.186s4.991-1.748,4.991-4.186Zm-.989,1.2c0,1.955-1.7,3.381-4,3.381s-4-1.426-4-3.381V37.258c0-1.955,1.7-3.381,4-3.381s4,1.426,4,3.381Zm26.289,3.864H121.647V35h12.42v-.9H120.658v8.97h6.164v5.98h-9.108v.874H136.9v-.874h-9.085v-5.98h6.463Zm19.849-1.173v-.851h-12.7V37.4h12.19V32.957H140.461v.851h12.213v2.76h-12.19v4.439H146.6v2.622h-9.108V44.5h19.182v-.874h-9.108V41.007Zm-14.214,6.9h12.949v5.244h.966V47.033H139.909Z" transform="translate(1015 6802)"/>
    <path id="패스_51" data-name="패스 51" class="cls-3" d="M-42.2-.936a3.708,3.708,0,0,1-2.4.876c-1.884,0-2.88-1.212-2.88-3.48v-1.2c0-1.968.972-3.228,2.712-3.228a3.8,3.8,0,0,1,2.376.708l.288-.408a4.477,4.477,0,0,0-2.664-.8c-2.148,0-3.252,1.5-3.252,3.876v.924c0,2.472.972,4.116,3.4,4.116A4.062,4.062,0,0,0-41.886-.54Zm4.788.888c-1.356,0-2.484-.732-2.484-3.084V-8.34h-.528v5.376c0,2.232,1.176,3.408,3.012,3.408S-34.4-.732-34.4-2.964V-8.34h-.528v5.208C-34.926-.78-36.054-.048-37.41-.048ZM-29.9-.06a4.239,4.239,0,0,1-2.6-.852l-.264.444a4.841,4.841,0,0,0,2.88.912c1.836,0,2.868-1.056,2.868-2.184v-.336c0-1.38-.588-1.788-2.916-2.328-1.86-.42-2.1-.936-2.1-1.692v-.276c0-1.116,1.152-1.6,2.172-1.6a4.114,4.114,0,0,1,2.28.624l.252-.432a4.277,4.277,0,0,0-2.532-.7c-1.3,0-2.7.648-2.7,2.088v.3c0,.84.192,1.68,2.4,2.16,2.292.492,2.616.888,2.616,1.86v.312C-27.546-.864-28.41-.06-29.9-.06Zm7.14.372v-8.16h2.88V-8.34h-6.288v.492h2.88V.312ZM-12.486-4.56c0-2.28-1.116-3.912-3.324-3.912S-19.134-6.84-19.134-4.56v1.092c0,2.28,1.116,3.912,3.324,3.912s3.324-1.632,3.324-3.912Zm-.54,1.08c0,2.232-1.068,3.432-2.784,3.432s-2.784-1.2-2.784-3.432V-4.548c0-2.232,1.068-3.432,2.784-3.432s2.784,1.2,2.784,3.432Zm5.94,2.352h.456l2.376-4.8c.264-.516.48-.948.708-1.476V.312h.516V-8.34h-.624L-6.846-1.728-10.11-8.34h-.6V.312h.516V-7.5c.192.444.42.924.672,1.416ZM-.918-8.34V.312H4.218V-.18H-.39V-3.888H3.882v-.48H-.39v-3.48H4.134V-8.34ZM6.1.312H6.63V-3.5H8.694a5.764,5.764,0,0,0,.66-.036L11.226.312h.564L9.882-3.648a2.083,2.083,0,0,0,1.692-2.2v-.264c0-1.6-1.1-2.232-2.844-2.232H6.1ZM8.73-7.848c1.56,0,2.3.576,2.3,1.764v.228c0,1.212-.744,1.86-2.4,1.86h-2V-7.848ZM18.894-.06a4.239,4.239,0,0,1-2.6-.852l-.264.444a4.841,4.841,0,0,0,2.88.912c1.836,0,2.868-1.056,2.868-2.184v-.336c0-1.38-.588-1.788-2.916-2.328-1.86-.42-2.1-.936-2.1-1.692v-.276c0-1.116,1.152-1.6,2.172-1.6a4.114,4.114,0,0,1,2.28.624l.252-.432a4.277,4.277,0,0,0-2.532-.7c-1.3,0-2.7.648-2.7,2.088v.3c0,.84.192,1.68,2.4,2.16,2.292.492,2.616.888,2.616,1.86v.312C21.246-.864,20.382-.06,18.894-.06Zm4.524.372h.528v-3.48h2.136c1.812,0,2.82-.84,2.82-2.46v-.264c0-1.6-.972-2.448-2.784-2.448h-2.7Zm2.7-8.16c1.632,0,2.244.792,2.244,1.98v.228c0,1.212-.612,1.98-2.34,1.98H23.946V-7.848Zm4.248-.492V.312h.528V-8.34ZM33.006.312h.528V-3.5H35.6a5.764,5.764,0,0,0,.66-.036L38.13.312h.564l-1.908-3.96a2.083,2.083,0,0,0,1.692-2.2v-.264c0-1.6-1.1-2.232-2.844-2.232H33.006Zm2.628-8.16c1.56,0,2.3.576,2.3,1.764v.228c0,1.212-.744,1.86-2.4,1.86h-2V-7.848Zm4.7-.492V.312h.528V-8.34ZM45.594.312v-8.16h2.88V-8.34H42.186v.492h2.88V.312Z" transform="translate(1015 6618)"/>
    <g id="그룹_15" data-name="그룹 15" transform="translate(-1 20)">
      <path id="패스_50" data-name="패스 50" class="cls-2" d="M-68.241-8.947V-9.8H-80.684v-2.76h12.236v-.851H-80.684v-2.737h12.351V-17H-81.627v8.05ZM-82.156-2.162h12.949V3.151h.966V-3.036H-82.156Zm-2.415-4.416V-5.7h19.182v-.874Zm36.34-5.888h-4.025v-5.06h-.989V-5.681h.989v-5.865h4.025v5.911h.989V-17.8h-.989ZM-60.7-3.335h12.489V3.151h.966V-4.255H-60.7Zm1.15-7.866a9.856,9.856,0,0,0,1.771,2.139,29.285,29.285,0,0,0,2.254,2.024l.575-.621a25.97,25.97,0,0,1-2.6-2.346c-1.587-1.61-1.587-1.978-1.587-3.818V-16.79h-1.012v2.944c0,1.84,0,2.461-1.771,4.3a27.433,27.433,0,0,1-2.829,2.6l.6.667a32.943,32.943,0,0,0,2.53-2.3A8.916,8.916,0,0,0-59.57-11.2Zm31.694,4.646V-17.8h-.989V-6.555Zm-6.509,9.568c.759-.644,1.4-1.242,2.024-1.84A7.7,7.7,0,0,0-30.613-.874,5.826,5.826,0,0,0-28.98.966c.552.483,1.495,1.265,2.553,2.07l.6-.759C-26.864,1.518-27.876.736-28.474.184A3.941,3.941,0,0,1-30.153-3.45V-5.2h-.966v1.886a3.557,3.557,0,0,1-1.265,3.22c-.644.667-1.38,1.357-1.978,1.863-.6-.506-1.334-1.2-1.978-1.863A3.557,3.557,0,0,1-37.6-3.312V-5.2h-.966V-3.45a3.96,3.96,0,0,1-1.7,3.634c-.6.552-1.61,1.334-2.645,2.093l.6.759c1.058-.805,2-1.587,2.553-2.07a6.006,6.006,0,0,0,1.656-1.84,7.7,7.7,0,0,0,1.725,2.047C-35.765,1.771-35.121,2.369-34.362,3.013Zm.391-15.893c0-2.438-2.346-4.186-4.991-4.186s-4.991,1.748-4.991,4.186v1.334c0,2.461,2.346,4.186,4.991,4.186s4.991-1.748,4.991-4.186Zm-.989,1.2c0,1.955-1.7,3.381-4,3.381s-4-1.426-4-3.381v-1.058c0-1.955,1.7-3.381,4-3.381s4,1.426,4,3.381Zm26.22,1.518v-.874H-21.321v-6.118h-.966v6.992Zm-16.491,3.4v.874H-6.049v-.874ZM-21.367-3.4h-.966V2.76H-8.51V1.886H-21.367Zm38.778,6.44V-17.8h-.989V3.036ZM11.753-15.893H1.817V-2.6H7.268a38.3,38.3,0,0,0,6.647-.552l-.138-.92a32.345,32.345,0,0,1-6.164.552H2.806V-14.95h8.947ZM26.335-8.3a6.558,6.558,0,0,0,1.633,2.139C29-5.106,30.36-3.772,31.625-2.6l.667-.667C30.82-4.623,29.394-6,28.29-7.2a4.429,4.429,0,0,1-1.518-3.841v-3.887h5.083v-.9H20.7v.9h5.083v3.887a5,5,0,0,1-1.61,4.232,43.506,43.506,0,0,1-4,3.933l.667.713c1.334-1.15,2.875-2.76,3.542-3.473A8.631,8.631,0,0,0,26.312-8.3Zm13.5-1.288H36.11V-17.8h-.989V3.036h.989V-8.671h3.726ZM57.063-2.852V-17.8h-.989v14.95Zm-11.546-1.1h-.989V2.783H57.592v-.92H45.517Zm.414-12.857c-2.714,0-5.037,2-5.037,4.416v1.518c0,2.415,2.323,4.416,5.037,4.416s5.037-2,5.037-4.416V-12.4C50.968-14.812,48.645-16.813,45.931-16.813Zm0,9.407a3.823,3.823,0,0,1-4.048-3.657v-1.15a3.823,3.823,0,0,1,4.048-3.657,3.823,3.823,0,0,1,4.048,3.657v1.15A3.823,3.823,0,0,1,45.931-7.406Zm13.708-.828v.851H78.821v-.851ZM76.5,3.082V2.231H63.572V-.644H75.877V-5.152H62.491V-4.3h12.42v2.829H62.606V3.082ZM69.23-17.5c-3.174,0-6.394,1.058-6.394,3.427v.506c0,2.369,3.22,3.427,6.394,3.427s6.394-1.15,6.394-3.427v-.506C75.624-16.445,72.4-17.5,69.23-17.5Zm0,6.463c-2.668,0-5.4-.759-5.4-2.576v-.391c0-1.84,2.737-2.6,5.4-2.6s5.4.759,5.4,2.6v.391C74.635-11.891,71.9-11.04,69.23-11.04Z" transform="translate(352 6829)"/>
      <path id="패스_49" data-name="패스 49" class="cls-3" d="M-93.048.312h3.072c1.872,0,2.64-.852,2.64-2.268V-2.28a1.816,1.816,0,0,0-1.812-1.956,1.689,1.689,0,0,0,1.416-1.728V-6.24c0-1.416-.828-2.1-2.64-2.1h-2.676Zm.516-4.3h2.28c1.728,0,2.376.612,2.376,1.74v.288c0,1.212-.684,1.788-2.052,1.788h-2.6Zm2.208-3.876c1.512,0,2.064.6,2.064,1.62V-6c0,1.08-.8,1.548-2,1.548h-2.268V-7.86ZM-85.776.312h.528V-3.5h2.064a5.764,5.764,0,0,0,.66-.036L-80.652.312h.564L-82-3.648a2.083,2.083,0,0,0,1.692-2.2v-.264c0-1.6-1.1-2.232-2.844-2.232h-2.628Zm2.628-8.16c1.56,0,2.3.576,2.3,1.764v.228c0,1.212-.744,1.86-2.4,1.86h-2V-7.848ZM-72.756.312h.588l-3.3-8.652H-76L-79.332.312h.576l1.056-2.8h3.912Zm-3.7-6.06c.264-.7.528-1.356.72-2.028.2.672.48,1.332.732,2.028l1.032,2.8H-77.52Zm5.508-2.592V.312h.516V-7.752c.1.2.24.5.372.732L-65.748.312h.72V-8.34h-.516V-.276c-.1-.2-.276-.576-.372-.732L-70.224-8.34Zm8.028,0V.312h2.556c2.064,0,3.444-1.32,3.444-3.708V-4.632c0-2.388-1.224-3.708-3.444-3.708Zm.528.5h2.076c1.812,0,2.856,1.08,2.856,3.264V-3.4c0,2.136-1.284,3.2-2.844,3.2h-2.088ZM-49.68-.06a4.239,4.239,0,0,1-2.6-.852l-.264.444a4.841,4.841,0,0,0,2.88.912C-47.832.444-46.8-.612-46.8-1.74v-.336c0-1.38-.588-1.788-2.916-2.328-1.86-.42-2.1-.936-2.1-1.692v-.276c0-1.116,1.152-1.6,2.172-1.6a4.114,4.114,0,0,1,2.28.624l.252-.432a4.277,4.277,0,0,0-2.532-.7c-1.3,0-2.7.648-2.7,2.088v.3c0,.84.192,1.68,2.4,2.16,2.292.492,2.616.888,2.616,1.86v.312C-47.328-.864-48.192-.06-49.68-.06Zm4.524.372h.528v-3.48h2.136c1.812,0,2.82-.84,2.82-2.46v-.264c0-1.6-.972-2.448-2.784-2.448h-2.7Zm2.7-8.16c1.632,0,2.244.792,2.244,1.98v.228c0,1.212-.612,1.98-2.34,1.98h-2.076V-7.848Zm4.248-.492V.312h.528V-8.34Zm2.64,8.652h.528V-3.5h2.064a5.764,5.764,0,0,0,.66-.036L-30.444.312h.564l-1.908-3.96a2.083,2.083,0,0,0,1.692-2.2v-.264c0-1.6-1.1-2.232-2.844-2.232h-2.628Zm2.628-8.16c1.56,0,2.3.576,2.3,1.764v.228c0,1.212-.744,1.86-2.4,1.86h-2V-7.848Zm4.7-.492V.312h.528V-8.34ZM-22.98.312v-8.16h2.88V-8.34h-6.288v.492h2.88V.312Zm7.164-.444V.312h5.328v-.5H-15.1l3.3-3.9a3.078,3.078,0,0,0,.984-2.172v-.12c0-1.3-.984-2.088-2.436-2.088a2.834,2.834,0,0,0-2.58,1.644l.432.252a2.362,2.362,0,0,1,2.172-1.416c1.236,0,1.9.624,1.9,1.632v.1c0,.564-.06.948-.84,1.86Zm7.092-.252h1.008v-1.08H-8.724Zm0-5.256h1.008V-6.72H-8.724Zm6.1-2.7V.312H-.072c2.064,0,3.444-1.32,3.444-3.708V-4.632C3.372-7.02,2.148-8.34-.072-8.34Zm.528.5H-.024c1.812,0,2.856,1.08,2.856,3.264V-3.4c0,2.136-1.284,3.2-2.844,3.2H-2.1Zm7.248-.5V.312h.528V-8.34Zm5.1,8.28a4.239,4.239,0,0,1-2.6-.852L7.38-.468a4.841,4.841,0,0,0,2.88.912c1.836,0,2.868-1.056,2.868-2.184v-.336c0-1.38-.588-1.788-2.916-2.328-1.86-.42-2.1-.936-2.1-1.692v-.276c0-1.116,1.152-1.6,2.172-1.6a4.114,4.114,0,0,1,2.28.624l.252-.432a4.277,4.277,0,0,0-2.532-.7c-1.3,0-2.7.648-2.7,2.088v.3c0,.84.192,1.68,2.4,2.16,2.292.492,2.616.888,2.616,1.86v.312C12.6-.864,11.736-.06,10.248-.06Zm7.14.372v-8.16h2.88V-8.34H13.98v.492h2.88V.312Zm4.2-8.652V.312h.528V-8.34Zm2.64,0V.312h.516V-7.752c.1.2.24.5.372.732L29.424.312h.72V-8.34h-.516V-.276c-.1-.2-.276-.576-.372-.732L24.948-8.34ZM37.74-.936a3.708,3.708,0,0,1-2.4.876c-1.884,0-2.88-1.212-2.88-3.48v-1.2c0-1.968.972-3.228,2.712-3.228a3.8,3.8,0,0,1,2.376.708l.288-.408a4.477,4.477,0,0,0-2.664-.8c-2.148,0-3.252,1.5-3.252,3.876v.924c0,2.472.972,4.116,3.4,4.116A4.062,4.062,0,0,0,38.052-.54ZM42.2.312v-8.16h2.88V-8.34H38.8v.492h2.88V.312ZM46.4-8.34V.312h.528V-8.34Zm1.8,0L51.372.312h.612L55.14-8.34h-.564L51.7-.324l-2.9-8.016Zm8.208,0V.312h5.136V-.18H56.94V-3.888h4.272v-.48H56.94v-3.48h4.524V-8.34ZM66.432.312h.528v-3.48H69.1c1.812,0,2.82-.84,2.82-2.46v-.264c0-1.6-.972-2.448-2.784-2.448h-2.7Zm2.7-8.16c1.632,0,2.244.792,2.244,1.98v.228c0,1.212-.612,1.98-2.34,1.98H66.96V-7.848Zm9.36,8.16h.588L75.78-8.34h-.528L71.916.312h.576l1.056-2.8H77.46Zm-3.7-6.06c.264-.7.528-1.356.72-2.028.2.672.48,1.332.732,2.028l1.032,2.8H73.728ZM80.3.312h.528V-3.5H82.9a5.764,5.764,0,0,0,.66-.036L85.428.312h.564l-1.908-3.96a2.083,2.083,0,0,0,1.692-2.2v-.264c0-1.6-1.1-2.232-2.844-2.232H80.3Zm2.628-8.16c1.56,0,2.3.576,2.3,1.764v.228c0,1.212-.744,1.86-2.4,1.86h-2V-7.848ZM93.48-8.34h-.72l-4.6,4.764V-8.34h-.528V.312h.528V-2.9l1.368-1.4L93.048.312H93.7L89.9-4.68Z" transform="translate(352 6772)"/>
    </g>
    <g id="그룹_14" data-name="그룹 14" transform="translate(-1 71)">
      <path id="패스_48" data-name="패스 48" class="cls-2" d="M-135.079-2.553V-15.847h-9.338V-2.553Zm9.338-7.314h-3.726V-17.8h-.989V3.036h.989V-8.947h3.726Zm-17.687-5.06h7.36V-3.473h-7.36Zm33.994,11.109h-13.432V2.967h13.432Zm-.966,5.911h-11.5V-2.944h11.5Zm-15.341-9.476v.874h19.182v-.874Zm9.591-9.959c-3.174,0-6.394,1.035-6.394,3.588v.6c0,2.576,3.22,3.611,6.394,3.611s6.394-1.127,6.394-3.611v-.6C-109.756-16.307-112.976-17.342-116.15-17.342Zm0,6.9c-2.6,0-5.4-.667-5.4-2.737v-.506c0-2.093,2.806-2.76,5.4-2.76s5.4.667,5.4,2.76v.506C-110.745-11.2-113.551-10.442-116.15-10.442Zm16.422,3.45v.9h5.014a56.933,56.933,0,0,0,7.567-.368l-.092-.874c-1.265.161-2.392.253-3.5.3v-8.51h2.6v-.9H-99.567v.9h2.139v8.556Zm5.474,0h-2.185v-8.556h4.715v8.533C-92.552-6.992-93.38-6.992-94.254-6.992Zm11.339,4.324V-17.8h-.966v4h-4.255v.92h4.255v2.6h-4.255v.92h4.255v6.693ZM-94.438-3.8h-.989V2.783h13.133v-.92H-94.438Zm31.211,6.831V-17.8h-.989V3.036Zm-16.7-17.342v.92h12.167v-.92h-5.589v-3.4h-.989v3.4Zm6.072,12.443c3.128,0,4.83-2.208,4.83-4.255v-1.2c0-2.047-1.7-4.255-4.83-4.255s-4.83,2.208-4.83,4.255v1.2C-78.683-4.071-76.981-1.863-73.853-1.863Zm0-8.786a3.574,3.574,0,0,1,3.864,3.358v1.15a3.574,3.574,0,0,1-3.864,3.358,3.574,3.574,0,0,1-3.864-3.358v-1.15A3.574,3.574,0,0,1-73.853-10.649ZM-38.042,3.082V2.231H-50.968V-.644h12.305V-5.2H-52.049v.851h12.42v2.875H-51.934V3.082Zm-7.245-16.836c.414.966,1.748,1.5,3.726,2.231,1.288.483,2.438.828,3.864,1.288l.368-.759c-1.426-.437-2.484-.759-3.91-1.288-2.369-.874-3.542-1.426-3.542-3.128v-.828h6.532v-.828H-52.371v.828h6.578v.828c0,1.7-1.173,2.254-3.542,3.128-1.426.529-2.484.851-3.91,1.288l.368.759c1.426-.46,2.576-.805,3.864-1.288C-47.035-12.259-45.7-12.788-45.287-13.754ZM-54.9-8.51v.851h19.182V-8.51Zm29.164-6.348c0,3.588-.782,4.117-8.188,7.107l.391.874c7.452-3.059,8.786-3.7,8.786-7.866v-2.093h-8.671v.9h7.682Zm6.693,7.429h.989V-17.8h-.989Zm1.5,10.465v-.9H-29.67v-3.2h11.615V-6h-12.7v.9h11.73v3.174H-30.636V3.036ZM0-12.673c.414.966,1.886,1.679,3.7,2.6,1.334.667,2.484,1.1,3.979,1.7l.391-.782c-1.5-.575-2.553-.989-4.025-1.7C1.679-12.006.506-12.6.506-14.582v-2.484H-.506v2.484c0,1.978-1.173,2.576-3.542,3.726-1.472.713-2.53,1.127-4.025,1.7l.391.782c1.495-.6,2.645-1.035,3.979-1.7C-1.886-10.994-.414-11.707,0-12.673ZM.506,3.036v-7.8H9.591v-.874H-9.591v.874H-.483v7.8ZM33.1-6.555V-17.8h-.989V-6.555ZM26.588,3.013c.759-.644,1.4-1.242,2.024-1.84A7.7,7.7,0,0,0,30.337-.874,5.826,5.826,0,0,0,31.97.966c.552.483,1.495,1.265,2.553,2.07l.6-.759C34.086,1.518,33.074.736,32.476.184A3.941,3.941,0,0,1,30.8-3.45V-5.2h-.966v1.886a3.557,3.557,0,0,1-1.265,3.22c-.644.667-1.38,1.357-1.978,1.863-.6-.506-1.334-1.2-1.978-1.863a3.557,3.557,0,0,1-1.265-3.22V-5.2h-.966V-3.45a3.96,3.96,0,0,1-1.7,3.634c-.6.552-1.61,1.334-2.645,2.093l.6.759c1.058-.805,2-1.587,2.553-2.07a6.006,6.006,0,0,0,1.656-1.84,7.7,7.7,0,0,0,1.725,2.047C25.185,1.771,25.829,2.369,26.588,3.013Zm.391-15.893c0-2.438-2.346-4.186-4.991-4.186S17-15.318,17-12.88v1.334c0,2.461,2.346,4.186,4.991,4.186s4.991-1.748,4.991-4.186Zm-.989,1.2c0,1.955-1.7,3.381-4,3.381s-4-1.426-4-3.381v-1.058c0-1.955,1.7-3.381,4-3.381s4,1.426,4,3.381Zm26.22,1.518v-.874H39.629v-6.118h-.966v6.992Zm-16.491,3.4v.874H54.9v-.874ZM39.583-3.4h-.966V2.76H52.44V1.886H39.583ZM70.219-7.866v-4.623H69.23v4.623H61.249v.874H80.431v-.874ZM63.8-15.939H76.475v.851a27.361,27.361,0,0,1-.6,5.451l.989.115a28.8,28.8,0,0,0,.575-5.658v-1.633H63.8ZM70.84,3.542c3.726,0,6.371-1.4,6.371-3.588V-.9c0-2.185-2.645-3.588-6.371-3.588S64.469-3.082,64.469-.9v.851C64.469,2.139,67.114,3.542,70.84,3.542Zm0-7.153c3.013,0,5.4,1.081,5.4,2.76v.759c0,1.679-2.392,2.76-5.4,2.76s-5.4-1.081-5.4-2.76V-.851C65.435-2.53,67.827-3.611,70.84-3.611ZM100.648-11.5H97.221v-6.3h-.989v14.95h.989V-10.58h3.427ZM86-3.979h-.989V2.783H97.934v-.92H86ZM89.953-14.1c0,3.657-.069,4.669-8.165,8.119l.391.874c8.142-3.519,8.763-4.646,8.763-8.878V-16.4H82.317v.9h7.636Zm15.916-1.932c-3.335,0-4.3,3.082-4.3,6.141v1.426c0,3.059.966,6.141,4.3,6.141s4.3-3.082,4.3-6.141v-.3h3.45V2h.989V-17.365h-.989v7.682h-3.45V-9.89C110.17-12.949,109.2-16.031,105.869-16.031Zm0,12.765c-2.714,0-3.312-2.576-3.312-5.313v-1.2c0-2.737.6-5.313,3.312-5.313s3.312,2.576,3.312,5.313v1.2C109.181-5.842,108.583-3.266,105.869-3.266Zm11.638,6.3h.989V-17.8h-.989Zm13.754-13.11h5.451V3.036h.989V-17.8h-.989v6.785h-5.451ZM126.868-8.51A6.558,6.558,0,0,0,128.5-6.371c1.035,1.058,2.392,2.392,3.749,3.634l.667-.667c-1.564-1.426-2.99-2.806-4.094-4-1.265-1.357-1.5-1.978-1.5-4.071v-4.784h-1.035v4.784c0,2.116-.115,2.76-1.587,4.462a42.735,42.735,0,0,1-4.094,4l.667.713a50.4,50.4,0,0,0,3.634-3.542,8.631,8.631,0,0,0,1.932-2.668Z" transform="translate(352 6952)"/>
      <path id="패스_47" data-name="패스 47" class="cls-3" d="M-93.732.312h3.072c1.872,0,2.64-.852,2.64-2.268V-2.28a1.816,1.816,0,0,0-1.812-1.956,1.689,1.689,0,0,0,1.416-1.728V-6.24c0-1.416-.828-2.1-2.64-2.1h-2.676Zm.516-4.3h2.28c1.728,0,2.376.612,2.376,1.74v.288c0,1.212-.684,1.788-2.052,1.788h-2.6Zm2.208-3.876c1.512,0,2.064.6,2.064,1.62V-6c0,1.08-.8,1.548-2,1.548h-2.268V-7.86ZM-86.46.312h.528V-3.5h2.064a5.764,5.764,0,0,0,.66-.036L-81.336.312h.564l-1.908-3.96a2.083,2.083,0,0,0,1.692-2.2v-.264c0-1.6-1.1-2.232-2.844-2.232H-86.46Zm2.628-8.16c1.56,0,2.3.576,2.3,1.764v.228c0,1.212-.744,1.86-2.4,1.86h-2V-7.848ZM-73.44.312h.588l-3.3-8.652h-.528L-80.016.312h.576l1.056-2.8h3.912Zm-3.7-6.06c.264-.7.528-1.356.72-2.028.2.672.48,1.332.732,2.028l1.032,2.8H-78.2Zm5.508-2.592V.312h.516V-7.752c.1.2.24.5.372.732L-66.432.312h.72V-8.34h-.516V-.276c-.1-.2-.276-.576-.372-.732L-70.908-8.34Zm8.028,0V.312h2.556C-58.98.312-57.6-1.008-57.6-3.4V-4.632c0-2.388-1.224-3.708-3.444-3.708Zm.528.5H-61c1.812,0,2.856,1.08,2.856,3.264V-3.4c0,2.136-1.284,3.2-2.844,3.2h-2.088ZM-50.364-.06a4.239,4.239,0,0,1-2.6-.852l-.264.444a4.841,4.841,0,0,0,2.88.912c1.836,0,2.868-1.056,2.868-2.184v-.336c0-1.38-.588-1.788-2.916-2.328-1.86-.42-2.1-.936-2.1-1.692v-.276c0-1.116,1.152-1.6,2.172-1.6a4.114,4.114,0,0,1,2.28.624l.252-.432a4.277,4.277,0,0,0-2.532-.7c-1.3,0-2.7.648-2.7,2.088v.3c0,.84.192,1.68,2.4,2.16,2.292.492,2.616.888,2.616,1.86v.312C-48.012-.864-48.876-.06-50.364-.06Zm4.524.372h.528v-3.48h2.136c1.812,0,2.82-.84,2.82-2.46v-.264c0-1.6-.972-2.448-2.784-2.448h-2.7Zm2.7-8.16c1.632,0,2.244.792,2.244,1.98v.228c0,1.212-.612,1.98-2.34,1.98h-2.076V-7.848Zm4.248-.492V.312h.528V-8.34Zm2.64,8.652h.528V-3.5h2.064A5.764,5.764,0,0,0-33-3.54L-31.128.312h.564l-1.908-3.96a2.083,2.083,0,0,0,1.692-2.2v-.264c0-1.6-1.1-2.232-2.844-2.232h-2.628Zm2.628-8.16c1.56,0,2.3.576,2.3,1.764v.228c0,1.212-.744,1.86-2.4,1.86h-2V-7.848Zm4.7-.492V.312h.528V-8.34ZM-23.664.312v-8.16h2.88V-8.34h-6.288v.492h2.88V.312Zm7.7-7.152a2.281,2.281,0,0,1,2.04-1.14c1.236,0,1.956.684,1.956,1.656v.1A1.8,1.8,0,0,1-13.872-4.44h-.936v.48h.96c.792,0,2.22.264,2.22,1.776v.156a2.03,2.03,0,0,1-2.316,1.98A3.886,3.886,0,0,1-16.416-.96l-.3.444a4.375,4.375,0,0,0,2.772.96C-11.82.444-11.1-.84-11.1-2.04v-.18a2.036,2.036,0,0,0-1.908-2,2.032,2.032,0,0,0,1.572-1.968v-.12a2.214,2.214,0,0,0-2.5-2.16A2.763,2.763,0,0,0-16.38-7.128ZM-9.408-.384H-8.4v-1.08H-9.408Zm0-5.256H-8.4V-6.72H-9.408Zm6.1-2.7V.312H-.756c2.064,0,3.444-1.32,3.444-3.708V-4.632C2.688-7.02,1.464-8.34-.756-8.34Zm.528.5H-.708c1.812,0,2.856,1.08,2.856,3.264V-3.4C2.148-1.26.864-.192-.7-.192H-2.784Zm7.248-.5V.312H9.6V-.18H4.992V-3.888H9.264v-.48H4.992v-3.48H9.516V-8.34Zm7.02,0V.312H16.5V-.18H12.012V-8.34Zm6.36,0V.312h.528V-8.34ZM25.824-.6a4.129,4.129,0,0,1-2.2.54c-1.884,0-2.94-1.212-2.94-3.48v-1.2c0-1.968,1.032-3.228,2.772-3.228a3.911,3.911,0,0,1,2.412.708l.288-.408a4.6,4.6,0,0,0-2.7-.8c-2.148,0-3.312,1.5-3.312,3.876v.924C20.148-1.2,21.18.444,23.6.444A4.472,4.472,0,0,0,26.34-.3V-4.188H23.664v.5h2.16ZM33.48-8.34v3.864H28.644V-8.34h-.528V.312h.528v-4.3H33.48v4.3h.528V-8.34ZM38.736.312v-8.16h2.88V-8.34H35.328v.492h2.88V.312Zm4.2-8.652V.312h.528V-3.66h4.164v-.48H43.464V-7.848H47.88V-8.34ZM52.7-.048c-1.356,0-2.484-.732-2.484-3.084V-8.34h-.528v5.376C49.692-.732,50.868.444,52.7.444s3.012-1.176,3.012-3.408V-8.34h-.528v5.208C55.188-.78,54.06-.048,52.7-.048ZM57.756-8.34V.312h5.016V-.18H58.284V-8.34ZM67.116.312h.528v-3.48H69.78c1.812,0,2.82-.84,2.82-2.46v-.264c0-1.6-.972-2.448-2.784-2.448h-2.7Zm2.7-8.16c1.632,0,2.244.792,2.244,1.98v.228c0,1.212-.612,1.98-2.34,1.98H67.644V-7.848Zm9.36,8.16h.588l-3.3-8.652h-.528L72.6.312h.576l1.056-2.8h3.912Zm-3.7-6.06c.264-.7.528-1.356.72-2.028.2.672.48,1.332.732,2.028l1.032,2.8H74.412ZM80.988.312h.528V-3.5H83.58a5.764,5.764,0,0,0,.66-.036L86.112.312h.564l-1.908-3.96a2.083,2.083,0,0,0,1.692-2.2v-.264c0-1.6-1.1-2.232-2.844-2.232H80.988Zm2.628-8.16c1.56,0,2.3.576,2.3,1.764v.228c0,1.212-.744,1.86-2.4,1.86h-2V-7.848ZM94.164-8.34h-.72l-4.6,4.764V-8.34H88.32V.312h.528V-2.9l1.368-1.4L93.732.312h.648L90.588-4.68Z" transform="translate(352 6895)"/>
    </g>
  </g>
</svg>
