<svg xmlns="http://www.w3.org/2000/svg" width="1079" height="599" viewBox="0 0 1079 599">
  <defs>
    <style>
      .cls-1 {
        fill: #fff;
      }

      .cls-2, .cls-4 {
        fill: none;
      }

      .cls-2 {
        stroke: #fff;
      }

      .cls-3 {
        stroke: none;
      }
    </style>
  </defs>
  <g id="그룹_49" data-name="그룹 49" transform="translate(-144 -7242)">
    <path id="패스_85" data-name="패스 85" d="M0,0H1079V599H0Z" transform="translate(144 7242)"/>
    <g id="그룹_47" data-name="그룹 47">
      <path id="패스_55" data-name="패스 55" class="cls-1" d="M11.12-22.6v8.96H2.4v1.68h8.72v9.52h1.76v-9.52H21.6v-1.68H12.88V-22.6Z" transform="translate(671 7352)"/>
      <path id="패스_54" data-name="패스 54" class="cls-1" d="M-32.959-15.985V.6h4.9c3.956,0,6.6-2.53,6.6-7.107V-8.878c0-4.577-2.346-7.107-6.6-7.107Zm1.012.966h3.979c3.473,0,5.474,2.07,5.474,6.256v2.254c0,4.094-2.461,6.141-5.451,6.141h-4ZM-18.055.6h1.012v-6.67h4.094c3.473,0,5.405-1.61,5.405-4.715v-.506c0-3.059-1.863-4.692-5.336-4.692h-5.175Zm5.175-15.64c3.128,0,4.3,1.518,4.3,3.8v.437c0,2.323-1.173,3.8-4.485,3.8h-3.979v-8.027ZM5.06.6H6.187L-.138-15.985H-1.15L-7.544.6h1.1l2.024-5.359h7.5ZM-2.024-11.017c.506-1.334,1.012-2.6,1.38-3.887.391,1.288.92,2.553,1.4,3.887L2.737-5.658H-4.071ZM8.533.6H9.545V-6.716H13.5a11.047,11.047,0,0,0,1.265-.069L18.354.6h1.081l-3.657-7.59A3.992,3.992,0,0,0,19.021-11.2v-.506c0-3.059-2.116-4.278-5.451-4.278H8.533Zm5.037-15.64c2.99,0,4.416,1.1,4.416,3.381v.437c0,2.323-1.426,3.565-4.6,3.565H9.545v-7.383Zm20.217-.943h-1.38L23.6-6.854v-9.131H22.586V.6H23.6V-5.566L26.22-8.257,32.959.6H34.2L26.933-8.97Z" transform="translate(351 7347)"/>
      <path id="패스_53" data-name="패스 53" class="cls-1" d="M-37.4-15.985V.6h4.9c3.956,0,6.6-2.53,6.6-7.107V-8.878c0-4.577-2.346-7.107-6.6-7.107Zm1.012.966h3.979c3.473,0,5.474,2.07,5.474,6.256v2.254c0,4.094-2.461,6.141-5.451,6.141h-4Zm18.607,14.9A8.125,8.125,0,0,1-22.77-1.748l-.506.851A9.278,9.278,0,0,0-17.756.851c3.519,0,5.5-2.024,5.5-4.186v-.644c0-2.645-1.127-3.427-5.589-4.462-3.565-.805-4.025-1.794-4.025-3.243v-.529c0-2.139,2.208-3.059,4.163-3.059a7.885,7.885,0,0,1,4.37,1.2l.483-.828a8.2,8.2,0,0,0-4.853-1.334c-2.484,0-5.175,1.242-5.175,4v.575c0,1.61.368,3.22,4.6,4.14,4.393.943,5.014,1.7,5.014,3.565v.6C-13.271-1.656-14.927-.115-17.779-.115ZM-9.108.6H-8.1v-6.67H-4c3.473,0,5.405-1.61,5.405-4.715v-.506c0-3.059-1.863-4.692-5.336-4.692H-9.108Zm5.175-15.64c3.128,0,4.3,1.518,4.3,3.8v.437c0,2.323-1.173,3.8-4.485,3.8H-8.1v-8.027Zm8.142-.943V.6H5.221V-15.985ZM9.269.6h1.012V-6.716h3.956A11.047,11.047,0,0,0,15.5-6.785L19.09.6h1.081l-3.657-7.59A3.992,3.992,0,0,0,19.757-11.2v-.506c0-3.059-2.116-4.278-5.451-4.278H9.269Zm5.037-15.64c2.99,0,4.416,1.1,4.416,3.381v.437c0,2.323-1.426,3.565-4.6,3.565H10.281v-7.383Zm9.016-.943V.6h1.012V-15.985ZM33.4.6v-15.64h5.52v-.943H26.864v.943h5.52V.6Z" transform="translate(1015 7347)"/>
      <g id="그룹_19" data-name="그룹 19">
        <circle id="타원_7" data-name="타원 7" class="cls-1" cx="96.349" cy="96.349" r="96.349" transform="translate(586.651 7508.789)"/>
        <g id="타원_4" data-name="타원 4" class="cls-2" transform="translate(254.651 7243.94)">
          <circle class="cls-3" cx="96.349" cy="96.349" r="96.349"/>
          <circle class="cls-4" cx="96.349" cy="96.349" r="95.849"/>
        </g>
        <g id="타원_6" data-name="타원 6" class="cls-2" transform="translate(918.401 7243.94)">
          <circle class="cls-3" cx="96.349" cy="96.349" r="96.349"/>
          <circle class="cls-4" cx="96.349" cy="96.349" r="95.849"/>
        </g>
        <path id="패스_46" data-name="패스 46" d="M2.64-20.85V.78H9.03c5.16,0,8.61-3.3,8.61-9.27v-3.09c0-5.97-3.06-9.27-8.61-9.27Zm1.32,1.26H9.15c4.53,0,7.14,2.7,7.14,8.16v2.94c0,5.34-3.21,8.01-7.11,8.01H3.96ZM22.08.78H23.4v-8.7h5.34c4.53,0,7.05-2.1,7.05-6.15v-.66c0-3.99-2.43-6.12-6.96-6.12H22.08Zm6.75-20.4c4.08,0,5.61,1.98,5.61,4.95v.57c0,3.03-1.53,4.95-5.85,4.95H23.4V-19.62ZM52.23.78H53.7L45.45-20.85H44.13L35.79.78h1.44l2.64-6.99h9.78ZM42.99-14.37c.66-1.74,1.32-3.39,1.8-5.07.51,1.68,1.2,3.33,1.83,5.07L49.2-7.38H40.32ZM56.76.78h1.32V-8.76h5.16a14.409,14.409,0,0,0,1.65-.09L69.57.78h1.41l-4.77-9.9a5.207,5.207,0,0,0,4.23-5.49v-.66c0-3.99-2.76-5.58-7.11-5.58H56.76Zm6.57-20.4c3.9,0,5.76,1.44,5.76,4.41v.57c0,3.03-1.86,4.65-6,4.65H58.08v-9.63ZM89.7-20.85H87.9L76.41-8.94V-20.85H75.09V.78h1.32V-7.26l3.42-3.51L88.62.78h1.62L80.76-11.7ZM99.45-.15a10.6,10.6,0,0,1-6.51-2.13l-.66,1.11a12.1,12.1,0,0,0,7.2,2.28c4.59,0,7.17-2.64,7.17-5.46v-.84c0-3.45-1.47-4.47-7.29-5.82-4.65-1.05-5.25-2.34-5.25-4.23v-.69c0-2.79,2.88-3.99,5.43-3.99a10.285,10.285,0,0,1,5.7,1.56l.63-1.08a10.692,10.692,0,0,0-6.33-1.74c-3.24,0-6.75,1.62-6.75,5.22v.75c0,2.1.48,4.2,6,5.4,5.73,1.23,6.54,2.22,6.54,4.65v.78C105.33-2.16,103.17-.15,99.45-.15Z" transform="translate(629 7614)"/>
        <g id="그룹_18" data-name="그룹 18" transform="translate(351.25 7436.637)">
          <line id="선_1" data-name="선 1" class="cls-2" x2="248" transform="translate(0 168)"/>
          <line id="선_4" data-name="선 4" class="cls-2" x1="248" transform="translate(415.5 168.5)"/>
          <line id="선_2" data-name="선 2" class="cls-2" y2="168"/>
          <line id="선_3" data-name="선 3" class="cls-2" y2="168" transform="translate(663.5 0.5)"/>
        </g>
      </g>
      <line id="선_11" data-name="선 11" class="cls-2" x2="0.5" y2="97" transform="translate(682.5 7743.5)"/>
    </g>
    <g id="그룹_21" data-name="그룹 21" transform="translate(17.931 23.196)">
      <path id="패스_13" data-name="패스 13" class="cls-2" d="M1584,7735.3l8.356-10.811" transform="translate(-918.931 82)"/>
      <path id="패스_14" data-name="패스 14" class="cls-2" d="M1592.356,7735.3,1584,7724.493" transform="translate(-927.287 82)"/>
    </g>
  </g>
</svg>
